<?xml version="1.0" standalone="no"?>
<!DOCTYPE svg PUBLIC "-//W3C//DTD SVG 20010904//EN"
 "http://www.w3.org/TR/2001/REC-SVG-20010904/DTD/svg10.dtd">
<svg version="1.0" xmlns="http://www.w3.org/2000/svg"
 width="896.000000pt" height="896.000000pt" viewBox="0 0 896.000000 896.000000"
 preserveAspectRatio="xMidYMid meet">

<g transform="translate(0.000000,896.000000) scale(0.100000,-0.100000)"
fill="#000000" stroke="none">
<path d="M2330 5720 c0 -5 7 -7 15 -4 8 4 15 8 15 10 0 2 -7 4 -15 4 -8 0 -15
-4 -15 -10z"/>
<path d="M2338 5693 c7 -3 16 -2 19 1 4 3 -2 6 -13 5 -11 0 -14 -3 -6 -6z"/>
<path d="M2341 5667 c-6 -6 -11 -21 -11 -34 0 -21 4 -23 43 -22 23 1 34 3 25
6 -11 3 -18 14 -18 28 0 26 -22 39 -39 22z m29 -27 c0 -11 -7 -20 -15 -20 -8
0 -15 9 -15 20 0 11 7 20 15 20 8 0 15 -9 15 -20z"/>
<path d="M2342 5578 c-28 -28 -3 -72 39 -66 30 4 47 33 33 56 -14 21 -55 27
-72 10z m66 -24 c3 -24 -20 -38 -49 -29 -19 6 -26 35 -12 49 15 15 58 1 61
-20z"/>
<path d="M2390 5491 c0 -6 5 -11 10 -11 19 0 10 -39 -10 -45 -26 -8 -53 13
-47 37 3 10 1 16 -4 12 -13 -8 -11 -38 3 -52 7 -7 21 -12 33 -12 41 0 60 45
30 70 -10 9 -15 9 -15 1z"/>
<path d="M2330 5360 c0 -5 12 -10 28 -10 l27 -1 -27 -15 c-41 -21 -34 -34 17
-34 25 0 45 5 45 10 0 6 -12 10 -27 10 l-28 1 28 17 c38 24 34 32 -18 32 -25
0 -45 -4 -45 -10z"/>
<path d="M2337 5273 c-11 -11 -8 -48 5 -61 30 -30 85 0 74 41 -5 23 -12 27
-40 27 -18 0 -36 -3 -39 -7z m60 -14 c17 -17 4 -39 -23 -39 -19 0 -24 5 -24
25 0 27 26 35 47 14z"/>
<path d="M2330 5180 c0 -5 21 -10 46 -10 27 0 43 4 39 10 -3 6 -24 10 -46 10
-21 0 -39 -4 -39 -10z"/>
<path d="M2330 5140 c0 -5 10 -10 22 -10 l22 0 -22 -16 c-12 -8 -22 -19 -22
-25 0 -12 77 -12 85 1 4 6 -6 10 -22 10 l-28 0 30 25 30 24 -47 1 c-27 0 -48
-4 -48 -10z"/>
<path d="M2330 5060 c0 -5 15 -10 32 -12 22 -2 34 -9 36 -20 3 -15 -4 -18 -32
-18 -20 0 -36 -4 -36 -8 0 -5 19 -6 43 -3 34 5 43 10 45 29 2 12 -3 24 -10 26
-35 11 -78 15 -78 6z"/>
<path d="M2336 4968 c3 -4 9 -8 15 -8 5 0 9 4 9 8 0 5 -7 9 -15 9 -8 0 -12 -4
-9 -9z"/>
<path d="M2336 4938 c3 -4 9 -8 15 -8 5 0 9 4 9 8 0 5 -7 9 -15 9 -8 0 -12 -4
-9 -9z"/>
</g>
</svg>
